<svg viewBox="0 0 31 34" xmlns="http://www.w3.org/2000/svg" fill-rule="evenodd" clip-rule="evenodd" stroke-linecap="square" stroke-miterlimit="1.5"><path fill="#89a53c" d="M-.002-.01H30.78v33.286H-.002z"/><path d="M238.408 2095.34s4.79-.09 4.79 3.66c0 3.74-2.906 3.93-4.509 6.09-.615.84-2.64 3.68 0 5.89 2.117 1.78 4.509.64 4.509.64" fill="none" stroke="#fff" stroke-width="2.37" transform="matrix(.80097 0 0 .88756 -184.22 -1850.498)"/><path d="M238.408 2095.34s4.79-.09 4.79 3.66c0 3.74-2.906 3.93-4.509 6.09-.615.84-2.64 3.68 0 5.89 2.117 1.78 4.509.64 4.509.64" fill="none" stroke="#fff" stroke-width="2.37" transform="matrix(.80097 0 0 .88756 -177.085 -1850.498)"/><path d="M238.408 2095.34s4.79-.09 4.79 3.66c0 3.74-2.906 3.93-4.509 6.09-.615.84-2.64 3.68 0 5.89 2.117 1.78 4.509.64 4.509.64" fill="none" stroke="#fff" stroke-width="2.37" transform="matrix(.80097 0 0 .88756 -169.916 -1850.498)"/></svg>