<svg viewBox="0 0 126 126" xmlns="http://www.w3.org/2000/svg" fill-rule="evenodd" clip-rule="evenodd" stroke-linecap="square" stroke-miterlimit="1.5"><circle cx="388.19" cy="3134.94" r="83.488" fill="none" stroke="#89a53c" stroke-width="2.75" transform="translate(-219.782 -2217.205) scale(.7272)"/><path d="M34.04 70.616V44.562a2.621 2.621 0 0 1 2.622-2.621h26.04a2.621 2.621 0 0 1 2.622 2.621v26.054a.874.874 0 0 1-.874.874H34.914a.874.874 0 0 1-.873-.874zm21.029 8.926a5.437 5.437 0 1 1-10.874 0 5.437 5.437 0 0 1 10.874 0zm-2.719 0a2.719 2.719 0 1 0-5.437 0 2.719 2.719 0 0 0 5.437 0zm-7.4-5.438H32.765a.874.874 0 0 0-.874.874v2.651c0 .483.391.874.874.874h9.765a7.172 7.172 0 0 1 2.418-4.399zm38.566 5.438a5.437 5.437 0 1 1-10.874 0 5.437 5.437 0 0 1 10.874 0zm-2.718 0a2.719 2.719 0 1 0-5.437 0 2.719 2.719 0 0 0 5.437 0zm12.33-4.564v2.651a.874.874 0 0 1-.874.874H85.18c-.506-3.47-3.493-6.146-7.1-6.146-3.609 0-6.596 2.676-7.102 6.146H56.733a7.173 7.173 0 0 0-2.418-4.399h13.507V49.111c0-.966.783-1.748 1.748-1.748h8.25a6.99 6.99 0 0 1 5.793 3.079l5.318 7.877a6.99 6.99 0 0 1 1.197 3.911v11.874h2.126c.483 0 .874.392.874.874zM84.264 58.52l-4.253-6.043a.874.874 0 0 0-.715-.37h-6.633a.874.874 0 0 0-.874.873v6.043c0 .483.391.874.874.874h10.886a.874.874 0 0 0 .715-1.377z" fill="#89a53c" fill-rule="nonzero"/></svg>