<svg viewBox="0 0 126 126" xmlns="http://www.w3.org/2000/svg" fill-rule="evenodd" clip-rule="evenodd" stroke-linecap="square" stroke-miterlimit="1.5"><circle cx="388.19" cy="3134.94" r="83.488" fill="none" stroke="#89a53c" stroke-width="2.75" transform="translate(-219.776 -2217.2) scale(.7272)"/><g fill="#89a53c" fill-rule="nonzero"><path d="M69.74 61.496c-.655 0-1.187.533-1.187 1.187v3.965c0 .655.532 1.187 1.186 1.187h16.08v-6.339h-16.08zm2 4.999a1.83 1.83 0 1 1 0-3.659 1.83 1.83 0 0 1 0 3.659z"/><path d="M69.74 58.727h16.079v-6.79a3.96 3.96 0 0 0-3.956-3.955H43.165a3.96 3.96 0 0 0-3.956 3.956v28.224a3.96 3.96 0 0 0 3.956 3.956h38.698a3.96 3.96 0 0 0 3.956-3.956v-9.558h-16.08a3.96 3.96 0 0 1-3.955-3.956v-3.965a3.96 3.96 0 0 1 3.955-3.956zm8.197-20.207l-18.785 6.693h21.17l-2.385-6.694z"/></g></svg>