<svg viewBox="0 0 126 126" xmlns="http://www.w3.org/2000/svg" fill-rule="evenodd" clip-rule="evenodd" stroke-linecap="square" stroke-miterlimit="1.5"><circle cx="388.19" cy="3134.94" r="83.488" fill="none" stroke="#89a53c" stroke-width="2.75" transform="translate(-219.782 -2217.2) scale(.7272)"/><g fill="#89a53c"><path d="M70.33 71.858h-2.086v2.085c0 1.15.935 2.085 2.085 2.085s2.085-.936 2.085-2.085c0-1.15-.935-2.085-2.085-2.085zm7.297-5.005c-1.15 0-2.085.936-2.085 2.085 0 1.15.935 2.086 2.085 2.086s2.085-.936 2.085-2.086v-2.085h-2.085z" fill-rule="nonzero"/><path d="M35.82 82.909H89.2v6.255H35.82z"/><path d="M54.69 66.853a2.087 2.087 0 0 0-2.084 2.085c0 1.15.935 2.086 2.085 2.086s2.085-.936 2.085-2.086v-2.085h-2.085z" fill-rule="nonzero"/><path d="M88.876 58.304H36.144a27.041 27.041 0 0 0-.323 4.17v17.307h13.657v-1.062a5.182 5.182 0 0 1-2.085.436 5.219 5.219 0 0 1-5.213-5.212V68.73h5.213c.743 0 1.45.157 2.091.44a5.219 5.219 0 0 1 5.207-5.443l5.213-.001v5.212a5.219 5.219 0 0 1-5.213 5.213 5.182 5.182 0 0 1-2.085-.436v6.066h19.808v-1.062a5.182 5.182 0 0 1-2.085.436 5.219 5.219 0 0 1-5.213-5.212V68.73h5.213c.744 0 1.45.157 2.091.44a5.219 5.219 0 0 1 5.207-5.443l5.213-.001v5.212a5.219 5.219 0 0 1-5.213 5.213 5.182 5.182 0 0 1-2.085-.436v6.066h13.657V62.475c0-1.41-.11-2.803-.323-4.17zM45.816 41.65a27.17 27.17 0 0 0-2.178 1.952 26.54 26.54 0 0 0-6.811 11.575h22.516L45.816 41.649zm18.258-5.818v16.525L76.62 39.81a26.453 26.453 0 0 0-12.546-3.978z" fill-rule="nonzero"/><path d="M47.393 71.858h-2.085v2.085c0 1.15.935 2.085 2.085 2.085s2.085-.936 2.085-2.085c0-1.15-.935-2.085-2.085-2.085zM48.4 39.81l12.546 12.547V35.832A26.453 26.453 0 0 0 48.4 39.81zm32.982 3.792a27.134 27.134 0 0 0-2.178-1.953L65.677 55.177h22.516a26.543 26.543 0 0 0-6.81-11.575z" fill-rule="nonzero"/></g></svg>