<svg viewBox="0 0 35 35" xmlns="http://www.w3.org/2000/svg" fill-rule="evenodd" clip-rule="evenodd" stroke-linejoin="round" stroke-miterlimit="1.414"><g fill="#89a53c"><path d="M8.287 6.787l-4.969 4.005h6.802V6.787H8.287z" fill-rule="nonzero"/><path d="M12.119 6.787H22v4.005h-9.882z"/><path d="M25.833 6.787H24v4.005h6.802l-4.97-4.005z" fill-rule="nonzero"/><path d="M2.671 12.79h7.45v8.573H2.67z"/><path d="M2.671 23.36v9.748a1 1 0 0 0 1 1h6.45V23.36H2.67zm21.329 0v10.747h6.45a1 1 0 0 0 .999-.999v-9.747h-7.45z" fill-rule="nonzero"/><path d="M12.119 12.79H22v21.317h-9.882zm11.881 0h7.449v8.573h-7.45z"/><path d="M17.687.222a1 1 0 0 0-1.254 0L10.767 4.79h12.586L17.687.222z" fill-rule="nonzero"/></g></svg>