<svg viewBox="0 0 24 24" xmlns="http://www.w3.org/2000/svg" fill-rule="evenodd" clip-rule="evenodd" stroke-linecap="square" stroke-miterlimit="1.5"><g fill="#00a0e3"><path d="M12.159 14.259c-.253-.092-.503-.348-.902-.462-.624-.179-.869-.381-.949-.915.071.045.197.175.315.21.044.013.14-.034.186-.022.307.076.565.087.565.087.095.082.095.161.232.231.139.07.381.07.559.069h.034c.174.001.395-.003.525-.069.138-.07.138-.149.232-.231 0 0 .258-.011.565-.087.046-.012.142.035.186.022.118-.035.244-.165.315-.21-.08.534-.325.736-.949.915-.402.115-.653.374-.908.464l-.006-.002zm-1.464 3.447s-.077 2.656.06 3.62c.278 1.95.618 2.182.618 2.182s-1.374-.674-1.356-2.788c.014-1.613.567-2.849.678-3.014zm-.904-.905l.226.402s-.887 2.263-.865 4.023c.025 1.97.096 2.32.096 2.32s-1.348-1.227-1.049-3.32c.229-1.597 1.46-3.275 1.592-3.425z"/><path d="M8.562 14.333s.112.651.267.883c.213.322.637.573.637.573s-1.686 1.929-2.145 4.234c-.386 1.932-.206 3.843-.206 3.843s-1.58-2.521-.521-6.16c.451-1.549 1.836-3.224 1.968-3.373zM6.904 8.456s.106.617.191.883c.117.362.337.799.337.799s-2.213 1.269-3.509 2.953c-1.202 1.561-2.007 3.843-2.007 3.843s-.939-1.982.082-4.428c.927-2.223 4.692-3.982 4.906-4.05zm-3.173-3.41c1.218-.923 2.257-.634 3.701-.642 2.656-.016 2.939-.671 2.939-.671S9.272 5.452 5.58 6.008c-1.948.293-3.287 1.431-3.287 1.431s.342-1.562 1.438-2.393zm2.313-2.443c1.018-.295 1.639.045 2.485.522.936.527 1.491.384 1.491.384s-.599.561-3.094.196c-1.384-.203-2.6.478-2.6.478s.803-1.315 1.718-1.58z"/><path d="M7.566 1.543c.775-.002 1.068.209 1.486.674.463.514.523.926.523.926s-.244-.291-1.62-.824c-.899-.348-1.761-.164-1.761-.164s.759-.61 1.372-.612zm2.564-.81c.561.506.709.896.708 1.539 0 .711-.251 1.065-.251 1.065s.014-.389-.708-1.745C9.407.707 8.578.251 8.578.251s.96-.052 1.552.482zM7.206 11.319l.443.899s-1.755 1.336-2.566 2.799c-.837 1.512-.7 3.289-.7 3.289s.136-1.426 1.335-3.32c.867-1.37 2.13-2.331 2.13-2.331l.639 1.024s-2.321 2.084-3.05 4.611c-.546 1.893-.432 3.542-.432 3.542s-2.785-3.18-1.349-6.688c.85-2.078 3.418-3.676 3.55-3.825zm6.429 6.387s.077 2.656-.06 3.62c-.277 1.95-.618 2.182-.618 2.182s1.374-.674 1.356-2.788c-.014-1.613-.567-2.849-.678-3.014zm-.905.15l-1.131.003s-.018 1.314.016 1.96c.103 1.967.55 2.483.55 2.483s.538-.536.565-2.486c.022-1.613 0-1.96 0-1.96zm1.809-1.055l-.226.402s.887 2.263.865 4.023c-.024 1.97-.096 2.32-.096 2.32s1.348-1.227 1.049-3.32c-.229-1.597-1.46-3.275-1.592-3.425z"/><path d="M15.768 14.333s-.112.651-.266.883c-.214.322-.638.573-.638.573s1.686 1.929 2.145 4.234c.386 1.932.206 3.843.206 3.843s1.581-2.521.521-6.16c-.451-1.549-1.836-3.224-1.968-3.373zm1.658-5.877s-.106.617-.191.883a6.629 6.629 0 0 1-.337.799s2.213 1.269 3.51 2.953c1.201 1.561 2.006 3.843 2.006 3.843s.939-1.982-.082-4.428c-.927-2.223-4.692-3.982-4.906-4.05zm3.173-3.41c-1.218-.923-2.257-.634-3.701-.642-2.656-.016-2.939-.671-2.939-.671s1.099 1.719 4.791 2.275c1.948.293 3.287 1.431 3.287 1.431s-.342-1.562-1.438-2.393zm-2.313-2.443c-1.018-.295-1.639.045-2.485.522-.936.527-1.491.384-1.491.384s.6.561 3.094.196c1.384-.203 2.6.478 2.6.478s-.803-1.315-1.718-1.58z"/><path d="M16.764 1.543c-.775-.002-1.068.209-1.486.674-.463.514-.523.926-.523.926s.245-.291 1.62-.824c.899-.348 1.761-.164 1.761-.164s-.759-.61-1.372-.612zM14.2.733c-.561.506-.709.896-.708 1.539 0 .711.252 1.065.252 1.065s-.015-.389.707-1.745C14.923.707 15.752.251 15.752.251s-.96-.052-1.552.482zm2.924 10.586l-.442.899s1.754 1.336 2.565 2.799c.838 1.512.7 3.289.7 3.289s-.136-1.426-1.335-3.32c-.867-1.37-2.13-2.331-2.13-2.331l-.639 1.024s2.321 2.084 3.05 4.611c.546 1.893.432 3.542.432 3.542s2.785-3.18 1.35-6.688c-.851-2.078-3.419-3.676-3.551-3.825zm-7.107.886s.229-.667.482-1.312c.551-1.403-.21-1.849-.441-2.007-.277-.189-.627-.154-.627-.154l-.234-.113.053.166-.241.095-.655.022.586.063s.089.356.437.555c.397.227.983.116.983.116s.055.329.022.623c-.084.741-.306 1.547-.365 1.946zm-.32-3.255c-.123-.026-.369.071-.369.071s.015.361.188.439c.337.153.711.027.711.027s.048-.148-.172-.369c-.017.035-.147.016-.173.057-.05.076-.001.209-.07.209-.129-.001-.161-.19-.16-.257a.365.365 0 0 1 .045-.177zm4.712 3.255s-.229-.667-.482-1.312c-.551-1.403.21-1.849.442-2.007.277-.189.626-.154.626-.154l.234-.113-.052.166.24.095.655.022-.586.063s-.089.356-.437.555c-.396.227-.983.116-.983.116s-.055.329-.022.623c.085.741.306 1.547.365 1.946zm.32-3.255c.123-.026.369.071.369.071s-.015.361-.188.439c-.336.153-.711.027-.711.027s-.047-.148.172-.369c.017.035.147.016.173.057.05.076.001.209.07.209.129-.001.162-.19.161-.257a.366.366 0 0 0-.046-.177z"/><path d="M14.995 8.734l.274.09s.247-.292.312-.375c.194-.245.341-.589.341-.589m-6.475.874l-.275.09s-.247-.292-.312-.375c-.193-.245-.34-.589-.34-.589m3.637 7.945c-.079.001-.723.01-1.007.147-.304.147-.754.705-.754.705l-.297-.294v-.695s.17.108.209.128c.039.019.529.039.92-.089.391-.127.694-.498.695-.499h.484s.303.372.695.499c.392.128.881.108.92.089.039-.02.21-.128.21-.128v.695l-.298.294s-.45-.558-.754-.705c-.303-.147-1.015-.147-1.015-.147h-.008z"/><path d="M12.165 15.208V14.12m-2.45.74h.256l.128.225h.638l.117-.265h.255m2.129.04h.256l.128.225h.638l.118-.265h.254" stroke="#00a0e3" stroke-width=".24"/><path d="M10.962 5.016l-.218.846-.727-.392-.497.925-.578-.142.003.712-.72-.059.023.694-.466-.079.141.537-.491-.181s-.616.257-3.133 1.371c-1.801.797-3.212 3.014-3.212 3.014s-.111-2.313 1.89-4.051c2.069-1.796 4.659-1.639 6.907-3.306 2-1.483 2.281-3.834 2.281-3.834l.002.016c.029.205.374 2.405 2.279 3.818 2.248 1.667 4.838 1.51 6.907 3.306 2.001 1.738 1.89 4.051 1.89 4.051s-1.411-2.217-3.212-3.014c-2.517-1.114-3.133-1.371-3.133-1.371l-.491.181.141-.537-.466.079.023-.694-.72.059.003-.712-.578.142-.497-.925-.727.392-.217-.846-1.204 1.236-1.203-1.236z"/><path d="M14.108 10.723s.432-.245.801-.513c.355-.26.928-.915.928-.915s-.774.594-1.016.734c-.295.171-.767.381-.767.381l.054.313zm-3.768 0s-.432-.245-.801-.513c-.356-.26-.929-.915-.929-.915s.775.594 1.016.734c.295.171.768.381.768.381l-.054.313z"/></g></svg>