<svg viewBox="0 0 26 26" xmlns="http://www.w3.org/2000/svg" fill-rule="evenodd" clip-rule="evenodd" stroke-linecap="square" stroke-miterlimit="1.5"><circle cx="4595.45" cy="4182.08" r="10.979" fill="#fff" stroke="#89a53c" stroke-width="2.02" transform="translate(-4540.56 -4130.985) scale(.99082)"/><path d="M15.07 17.192l-.16.656c-.482.19-.866.334-1.153.434-.286.1-.62.149-1 .149-.582 0-1.035-.143-1.359-.426a1.38 1.38 0 0 1-.485-1.084c0-.169.012-.343.037-.52.024-.179.063-.379.117-.603l.601-2.13a9.1 9.1 0 0 0 .136-.579 2.52 2.52 0 0 0 .055-.5c0-.271-.057-.461-.169-.568-.112-.107-.326-.161-.643-.161-.156 0-.316.025-.479.073a6.675 6.675 0 0 0-.42.139l.16-.657c.394-.16.771-.298 1.132-.412.36-.114.7-.171 1.023-.171.578 0 1.025.14 1.339.42.313.28.47.642.47 1.09 0 .092-.01.255-.032.488a3.268 3.268 0 0 1-.12.642l-.6 2.121c-.05.17-.093.365-.132.585-.04.217-.058.384-.058.495 0 .282.063.474.188.576.127.103.346.153.656.153.146 0 .311-.025.495-.076a2.77 2.77 0 0 0 .401-.134zm.152-8.905c0 .37-.14.685-.42.944-.278.26-.615.391-1.008.391-.395 0-.732-.13-1.015-.39a1.238 1.238 0 0 1-.423-.945c0-.369.142-.685.423-.948.282-.262.62-.393 1.015-.393.393 0 .73.131 1.009.393.28.263.419.58.419.948z" fill="#89a53c" fill-rule="nonzero"/></svg>