<svg viewBox="0 0 35 43" xmlns="http://www.w3.org/2000/svg" fill-rule="evenodd" clip-rule="evenodd" stroke-linecap="square" stroke-miterlimit="1.5"><path d="M219.44 1993.96s7.923-1.3 8.115 16.97" fill="none" stroke="#89a53c" stroke-width="2.96" transform="matrix(.64787 0 0 .70163 -136.212 -1392.589)"/><path d="M219.44 1993.96s7.923-1.3 8.115 16.97" fill="none" stroke="#89a53c" stroke-width="2.96" transform="matrix(-.64787 0 0 .70163 170.358 -1393.847)"/><path d="M219.44 1993.96s7.923-1.3 8.115 16.97" fill="none" stroke="#89a53c" stroke-width="2.85" transform="matrix(-.44623 .50867 .4697 .48325 -814.828 -1048.31)"/><path d="M220.497 2006.23v6.88" fill="none" stroke="#89a53c" stroke-width="3.09" transform="scale(.64787 .70163) rotate(-45 -2278.72 1265.25)"/><path d="M220.497 2006.23v6.88" fill="none" stroke="#89a53c" stroke-width="3.09" transform="scale(.64787 .70163) rotate(-45 -2285.254 1249.575)"/><path d="M220.497 2006.23v6.88" fill="none" stroke="#89a53c" stroke-width="3.09" transform="scale(-.64787 .70163) rotate(-45 -2296.215 1306.952)"/><path d="M220.497 2006.23v6.88" fill="none" stroke="#89a53c" stroke-width="3.09" transform="scale(-.64787 .70163) rotate(-45 -2311.92 1313.416)"/><path d="M220.497 2006.23v6.88" fill="none" stroke="#89a53c" stroke-width="3.09" transform="scale(-.64787 .70163) rotate(-45 -2305.072 1328.868)"/><path d="M220.497 2006.23v6.88" fill="none" stroke="#89a53c" stroke-width="3.09" transform="scale(.64787 .70163) rotate(-45 -2269.864 1243.334)"/><path d="M220.497 2006.23v6.88" fill="none" stroke="#89a53c" stroke-width="2.96" transform="matrix(-.64766 .01798 .0166 .7014 138.743 -1375.508)"/><path d="M220.497 2006.23v6.88" fill="none" stroke="#89a53c" stroke-width="2.96" transform="matrix(-.0166 -.7014 .64766 -.01798 -1270.874 231.205)"/><path d="M219.44 1993.96s7.923-1.3 8.115 16.97" fill="none" stroke="#89a53c" stroke-width="2.85" transform="matrix(.44623 .50867 -.4697 .48325 849.366 -1048.94)"/><g fill="none" stroke="#89a53c" stroke-width="2.96"><path d="M220.497 2006.23v6.88" transform="matrix(.64766 .01798 -.0166 .7014 -104.212 -1376.139)"/><path d="M220.497 2006.23v6.88" transform="matrix(.0166 -.7014 -.64766 -.01798 1305.406 230.575)"/></g><path d="M235.712 1981.93v13.17" fill="none" stroke="#89a53c" stroke-width="2.96" transform="matrix(.64787 0 0 .70163 -135.64 -1388.78)"/><path d="M220.497 2006.23v6.88" fill="none" stroke="#89a53c" stroke-width="3.09" transform="scale(.64787 .70163) rotate(-45 -2245.018 1266.236)"/><path d="M220.497 2006.23v6.88" fill="none" stroke="#89a53c" stroke-width="3.09" transform="scale(-.64787 .70163) rotate(-45 -2271.685 1330.087)"/><path d="M235.712 1981.93v13.17" fill="none" stroke="#89a53c" stroke-width="3.33" transform="matrix(.64787 0 0 .54816 -135.557 -1059.624)"/><path d="M213.023 2017.56h47.403" fill="none" stroke="#89a53c" stroke-width="2.96" transform="matrix(.64787 0 0 .70163 -136.212 -1392.589)"/></svg>