<svg viewBox="0 0 126 126" xmlns="http://www.w3.org/2000/svg" fill-rule="evenodd" clip-rule="evenodd" stroke-linecap="square" stroke-miterlimit="1.5"><circle cx="388.19" cy="3134.94" r="83.488" fill="none" stroke="#89a53c" stroke-width="2.75" transform="translate(-219.776 -2217.205) scale(.7272)"/><g transform="translate(38.206 38.191) scale(.10105)"><clipPath id="a"><path d="M0 0h481.135v481.135H0z"/></clipPath><g fill="#89a53c" fill-rule="nonzero" clip-path="url(#a)"><path d="M285.248 354.109c-12.2-12.1-27.5-12.1-39.7 0-9.3 9.2-18.6 18.4-27.7 27.8-2.5 2.6-4.6 3.1-7.7 1.4-6-3.3-12.4-5.9-18.2-9.5-26.9-16.9-49.5-38.7-69.5-63.3-9.9-12.2-18.8-25.2-24.9-39.9-1.2-3-1.1-4.9 1.4-7.3 9.3-9 18.4-18.2 27.5-27.4 12.7-12.8 12.7-27.8-.1-40.7-7.2-7.3-14.5-14.6-21.8-21.8-7.5-7.5-14.9-15-22.5-22.5-12.3-12-27.5-12.1-39.8 0-9.3 9.2-18.4 18.7-27.8 27.7-8.8 8.4-13.3 18.6-14.2 30.6-1.4 19.4 3.3 37.8 10 55.7 13.8 37 34.7 69.8 60 100 34.2 40.8 75.2 73 123.1 96.3 21.5 10.5 43.9 18.5 68.2 19.8 16.7.9 31.3-3.3 42.9-16.3 8-8.9 16.9-17 25.4-25.5 12.5-12.6 12.6-27.9.2-40.4-15-15-29.9-29.8-44.8-44.7z"/><path d="M436.748 44.409c-59.2-59.2-155.1-59.2-214.3 0-57 57-59.1 148-6.4 207.5l1.5 1.3c-5.7 12.4-15.6 27.6-31.2 35.3-5.2 2.5-4 10.2 1.7 11.1 17.1 2.7 41.6-.3 64.4-17.6l.3.3c58.1 34.2 134 26.3 183.9-23.6 59.3-59.2 59.3-155.1.1-214.3zm-100.7 13.6c13.6.1 24.5 11.2 24.4 25-.1 13.7-11.2 24.8-24.5 24.7-13.8-.1-24.9-11.4-24.8-25.1.1-13.7 11.2-24.7 24.9-24.6zm35.1 166.5c-.5 2.1-1.9 4.3-3.4 5.9-9 9.1-19.7 14.5-32.6 14.7-6 .1-12.1-.1-18-1-9.9-1.4-22.4-13.6-20.6-26.7 1.2-8.9 2.6-17.8 4.1-26.7 2.6-15.4 5.4-30.9 8.1-46.3.2-1 .2-2 .2-3 0-6.5-2-8.7-8.4-9.6-2.7-.4-5.6-.6-8.1-1.5-3.2-1.1-4.6-3.6-4.3-6.2.3-2.7 2-4.4 5.5-5.1 1.8-.4 3.7-.4 5.6-.4h46.8c5.8 0 9.2 2.7 9.4 8.5.1 4.8-.7 9.6-1.6 14.4-3.1 17.6-6.4 35.2-9.6 52.9-1.1 5.8-2.3 11.7-2.9 17.5-.3 2.8.1 5.8.8 8.5.9 3.7 3.7 5.7 7.4 5.3 3.1-.4 6.2-1.5 9.2-2.6 2.4-.9 4.5-2.6 7-3.5 3.3-1.3 6.3 1.2 5.4 4.9z"/></g></g></svg>