<svg viewBox="0 0 1077 453" xmlns="http://www.w3.org/2000/svg" fill-rule="evenodd" clip-rule="evenodd" stroke-linecap="square" stroke-miterlimit="1.5"><g font-family="'FuturaPT-Bold','Futura PT',sans-serif" font-weight="700" font-size="18"><text x="323.274" y="956.474" transform="translate(-183.56 -834.735)">Вы ост<tspan x="377.85px 388.938px 398.91px" y="956.474px 956.474px 956.474px">авл</tspan>яете зак<tspan x="479.784" y="956.474">а</tspan>з</text><text x="323.274" y="976.474" transform="translate(-183.56 -834.735)">на сайте или по</text><text x="323.274" y="996.474" transform="translate(-183.56 -834.735)">телефону</text></g><g font-family="'FuturaPT-Bold','Futura PT',sans-serif" font-weight="700" font-size="18"><text x="323.274" y="956.474" transform="translate(-181.569 -646.105)">Вы оплачиваете</text><text x="323.274" y="976.474" transform="translate(-181.569 -646.105)">зак<tspan x="352.398" y="976.474">а</tspan>з при</text><text x="323.274" y="996.474" transform="translate(-181.569 -646.105)">пол<tspan x="354.774px 365.466px" y="996.474px 996.474px">уч</tspan>ении</text></g><g font-family="'FuturaPT-Bold','Futura PT',sans-serif" font-weight="700" font-size="18"><text x="323.274" y="956.474" transform="translate(211.944 -638.885)">Мы осуществ<tspan x="437.844" y="956.474">л</tspan>яем</text><text x="323.274" y="976.474" transform="translate(211.944 -638.885)">монт<tspan x="364.116" y="976.474">а</tspan>ж теплицы</text></g><g font-family="'FuturaPT-Bold','Futura PT',sans-serif" font-weight="700" font-size="18"><text x="323.274" y="956.474" transform="translate(593.265 -659.053)">Вы наслаж<tspan x="417.54" y="956.474">д</tspan>аетесь</text><text x="323.274" y="976.474" transform="translate(593.265 -659.053)">без<tspan x="352.452" y="976.474">у</tspan>пречной</text><text x="323.274" y="996.474" transform="translate(593.265 -659.053)">теплицей с</text><text x="323.274" y="1016.47" transform="translate(593.265 -659.053)">полик<tspan x="375.186" y="1016.47">а</tspan>рбонатом</text></g><g font-family="'FuturaPT-Bold','Futura PT',sans-serif" font-weight="700" font-size="18"><text x="323.274" y="956.474" transform="translate(208.153 -832.478)">Мы подг<tspan x="395.958px 406.956px 414.138px 425.226px 435.198px" y="956.474px 956.474px 956.474px 956.474px 956.474px">отавл</tspan>иваем</text><text x="323.274" y="976.474" transform="translate(208.153 -832.478)">теплицу к отгр<tspan x="448.068px 458.76px 467.112px 476.976px" y="976.474px 976.474px 976.474px 976.474px">узке</tspan></text></g><g font-family="'FuturaPT-Bold','Futura PT',sans-serif" font-weight="700" font-size="18"><text x="323.274" y="956.474" transform="translate(588.3 -834.735)">Дост<tspan x="362.55px 373.638px 383.61px" y="956.474px 956.474px 956.474px">авл</tspan>яем на</text><text x="323.274" y="976.474" transform="translate(588.3 -834.735)">у<tspan x="333.966" y="976.474">ч</tspan>асток</text></g><circle cx="388.19" cy="3134.94" r="83.488" fill="none" stroke="#89a53c" stroke-width="2.75" transform="translate(-219.772 -2154.908) scale(.7272)"/><g transform="translate(38.21 100.497) scale(.10105)"><clipPath id="a"><path d="M0 0h481.135v481.135H0z"/></clipPath><g fill="#89a53c" fill-rule="nonzero" clip-path="url(#a)"><path d="M285.248 354.109c-12.2-12.1-27.5-12.1-39.7 0-9.3 9.2-18.6 18.4-27.7 27.8-2.5 2.6-4.6 3.1-7.7 1.4-6-3.3-12.4-5.9-18.2-9.5-26.9-16.9-49.5-38.7-69.5-63.3-9.9-12.2-18.8-25.2-24.9-39.9-1.2-3-1.1-4.9 1.4-7.3 9.3-9 18.4-18.2 27.5-27.4 12.7-12.8 12.7-27.8-.1-40.7-7.2-7.3-14.5-14.6-21.8-21.8-7.5-7.5-14.9-15-22.5-22.5-12.3-12-27.5-12.1-39.8 0-9.3 9.2-18.4 18.7-27.8 27.7-8.8 8.4-13.3 18.6-14.2 30.6-1.4 19.4 3.3 37.8 10 55.7 13.8 37 34.7 69.8 60 100 34.2 40.8 75.2 73 123.1 96.3 21.5 10.5 43.9 18.5 68.2 19.8 16.7.9 31.3-3.3 42.9-16.3 8-8.9 16.9-17 25.4-25.5 12.5-12.6 12.6-27.9.2-40.4-15-15-29.9-29.8-44.8-44.7z"/><path d="M436.748 44.409c-59.2-59.2-155.1-59.2-214.3 0-57 57-59.1 148-6.4 207.5l1.5 1.3c-5.7 12.4-15.6 27.6-31.2 35.3-5.2 2.5-4 10.2 1.7 11.1 17.1 2.7 41.6-.3 64.4-17.6l.3.3c58.1 34.2 134 26.3 183.9-23.6 59.3-59.2 59.3-155.1.1-214.3zm-100.7 13.6c13.6.1 24.5 11.2 24.4 25-.1 13.7-11.2 24.8-24.5 24.7-13.8-.1-24.9-11.4-24.8-25.1.1-13.7 11.2-24.7 24.9-24.6zm35.1 166.5c-.5 2.1-1.9 4.3-3.4 5.9-9 9.1-19.7 14.5-32.6 14.7-6 .1-12.1-.1-18-1-9.9-1.4-22.4-13.6-20.6-26.7 1.2-8.9 2.6-17.8 4.1-26.7 2.6-15.4 5.4-30.9 8.1-46.3.2-1 .2-2 .2-3 0-6.5-2-8.7-8.4-9.6-2.7-.4-5.6-.6-8.1-1.5-3.2-1.1-4.6-3.6-4.3-6.2.3-2.7 2-4.4 5.5-5.1 1.8-.4 3.7-.4 5.6-.4h46.8c5.8 0 9.2 2.7 9.4 8.5.1 4.8-.7 9.6-1.6 14.4-3.1 17.6-6.4 35.2-9.6 52.9-1.1 5.8-2.3 11.7-2.9 17.5-.3 2.8.1 5.8.8 8.5.9 3.7 3.7 5.7 7.4 5.3 3.1-.4 6.2-1.5 9.2-2.6 2.4-.9 4.5-2.6 7-3.5 3.3-1.3 6.3 1.2 5.4 4.9z"/></g></g><circle cx="388.19" cy="3134.94" r="83.488" fill="none" stroke="#89a53c" stroke-width="2.75" transform="translate(-219.772 -1957.973) scale(.7272)"/><circle cx="388.19" cy="3134.94" r="83.488" fill="none" stroke="#89a53c" stroke-width="2.75" transform="translate(161.617 -2154.908) scale(.7272)"/><g transform="translate(412.323 93.222) scale(.10321)"><clipPath id="b"><path d="M0 0h612.001v612.001H0z"/></clipPath><g clip-path="url(#b)"><path d="M40.121 105.553c-11.42-34.613 7.447-72.068 42.064-83.49 34.617-11.422 72.07 7.451 83.49 42.064l129.897 393.695c-12.105-3.196-24.979-3.781-37.831-1.431L131.984 75.244c-5.292-16.04-22.643-24.781-38.682-19.489-16.04 5.292-24.781 22.643-19.489 38.682 3.069 9.303-1.984 19.335-11.288 22.404-9.303 3.069-19.334-1.985-22.404-11.288zm511.792 308.84l-212.828 70.222a86.927 86.927 0 0 1 17.342 30.288c.135.411.211.826.34 1.238l206.263-68.056c9.303-3.069 14.357-13.101 11.288-22.403-3.07-9.305-13.103-14.359-22.405-11.289zM339.582 520.465c12.059 36.547-7.794 75.949-44.34 88.008-36.547 12.059-75.949-7.793-88.008-44.34-12.059-36.548 7.794-75.949 44.34-88.008 36.547-12.06 75.95 7.793 88.008 44.34zm-33.087 10.916c-6.029-18.273-25.729-28.198-44.004-22.169-18.273 6.028-28.199 25.73-22.17 44.003s25.73 28.199 44.004 22.171c18.273-6.03 28.199-25.732 22.17-44.005zm191.632-384.036l72.256 218.997a8.87 8.87 0 0 1-5.644 11.202l-227.42 75.035a8.868 8.868 0 0 1-11.201-5.644l-72.256-218.997a8.87 8.87 0 0 1 5.644-11.202L486.925 141.7a8.872 8.872 0 0 1 11.202 5.645zm-30.083 127.214l-77.438-42.605-36.864 80.319 24.407 11.233 15.939-34.747 28.781 87.232 27.545-9.088-28.777-87.219 33.477 18.427 12.93-23.552zm-67.572-130.651L354.276 3.896a5.67 5.67 0 0 0-7.162-3.608l-39.611 13.069-.194.356-.332-.182-20.899 6.896 17.21 52.159-23.573 7.778-17.209-52.159-20.906 6.898-.158.344-.37-.17-39.354 12.985a5.67 5.67 0 0 0-3.608 7.162l46.197 140.013a5.67 5.67 0 0 0 7.162 3.608l145.398-47.974a5.672 5.672 0 0 0 3.605-7.163z" fill="#89a53c" fill-rule="nonzero"/></g></g><circle cx="388.19" cy="3134.94" r="83.488" fill="none" stroke="#89a53c" stroke-width="2.75" transform="translate(161.617 -1957.973) scale(.7272)"/><circle cx="388.19" cy="3134.94" r="83.488" fill="none" stroke="#89a53c" stroke-width="2.75" transform="translate(548.822 -2154.908) scale(.7272)"/><path d="M802.645 132.922v-26.054a2.621 2.621 0 0 1 2.621-2.621h26.04a2.621 2.621 0 0 1 2.622 2.621v26.054a.874.874 0 0 1-.874.874h-29.536a.874.874 0 0 1-.873-.874zm21.028 8.926a5.437 5.437 0 1 1-10.874 0 5.437 5.437 0 0 1 10.874 0zm-2.719 0a2.719 2.719 0 1 0-5.437 0 2.719 2.719 0 0 0 5.437 0zm-7.4-5.437H801.37a.874.874 0 0 0-.874.873v2.651c0 .483.391.874.874.874h9.765a7.172 7.172 0 0 1 2.418-4.398zm38.566 5.437a5.437 5.437 0 1 1-10.874 0 5.437 5.437 0 0 1 10.874 0zm-2.718 0a2.719 2.719 0 1 0-5.437 0 2.719 2.719 0 0 0 5.437 0zm12.33-4.564v2.651a.874.874 0 0 1-.874.874h-7.074c-.506-3.47-3.493-6.146-7.1-6.146-3.609 0-6.596 2.676-7.102 6.146h-14.245a7.173 7.173 0 0 0-2.418-4.398h13.507v-24.994c0-.966.783-1.748 1.748-1.748h8.25a6.99 6.99 0 0 1 5.793 3.079l5.318 7.877a6.99 6.99 0 0 1 1.197 3.911v11.875h2.126c.483 0 .874.39.874.873zm-8.864-16.458l-4.253-6.043a.874.874 0 0 0-.715-.37h-6.633a.874.874 0 0 0-.874.873v6.043c0 .483.391.874.874.874h10.886a.874.874 0 0 0 .715-1.377z" fill="#89a53c" fill-rule="nonzero"/><circle cx="388.19" cy="3134.94" r="83.488" fill="none" stroke="#89a53c" stroke-width="2.75" transform="translate(548.822 -1957.973) scale(.7272)"/><g fill="#89a53c" fill-rule="nonzero"><path d="M418.778 338.64a4.977 4.977 0 0 0 3.522 8.499c1.275 0 2.55-.485 3.522-1.458l16.35-16.353-7.044-7.038-16.35 16.35zm40.863-30.303l7.121-3.682 3.728-7.207-3.476-3.476-7.204 3.732-3.688 7.114-8.661 8.671 3.512 3.52 8.668-8.672z"/><path d="M461.201 327.237l-.67-.067c-1.215 0-2.367.25-3.443.648l-20.44-20.444c.398-1.075.647-2.227.647-3.442l-.066-.67c-.352-5.183-4.621-9.29-9.893-9.29-1.534 0-2.971.375-4.27.996l6.617 6.617c.349.348.588.76.747 1.195.435 1.175.2 2.55-.747 3.499a3.31 3.31 0 0 1-2.347.972 3.3 3.3 0 0 1-1.152-.225 3.303 3.303 0 0 1-1.195-.75l-6.616-6.614c-.621 1.298-.996 2.736-.996 4.27 0 5.271 4.106 9.54 9.288 9.893l.671.066c1.215 0 2.367-.249 3.443-.644l20.436 20.44c-.391 1.076-.64 2.228-.64 3.443l.07.67c.345 5.186 4.617 9.29 9.889 9.29a9.75 9.75 0 0 0 4.27-.997l-6.617-6.616a3.39 3.39 0 0 1-.754-1.192 3.31 3.31 0 0 1 3.101-4.475c.392 0 .777.083 1.155.226.435.162.85.395 1.192.747l6.616 6.616c.625-1.301.996-2.735.996-4.27-.003-5.271-4.11-9.54-9.292-9.892z"/></g><g fill="#89a53c" fill-rule="nonzero"><path d="M69.743 320.733c-.654 0-1.186.532-1.186 1.187v3.965c0 .655.532 1.187 1.186 1.187h16.08v-6.339h-16.08zm2.001 4.999a1.83 1.83 0 1 1 0-3.659 1.83 1.83 0 0 1 0 3.659z"/><path d="M69.743 317.964h16.08v-6.79a3.96 3.96 0 0 0-3.956-3.955H43.17a3.96 3.96 0 0 0-3.956 3.955V339.4a3.96 3.96 0 0 0 3.956 3.956h38.698a3.96 3.96 0 0 0 3.956-3.956v-9.558h-16.08a3.96 3.96 0 0 1-3.955-3.956v-3.965a3.96 3.96 0 0 1 3.955-3.956zm8.198-20.208l-18.785 6.694h21.17l-2.385-6.694z"/></g><g fill="#89a53c"><path d="M838.933 331.094h-2.085v2.086c0 1.15.935 2.085 2.085 2.085s2.085-.936 2.085-2.085c0-1.15-.935-2.086-2.085-2.086zm7.298-5.004c-1.15 0-2.085.936-2.085 2.085 0 1.15.935 2.085 2.085 2.085s2.085-.935 2.085-2.085v-2.085h-2.085z" fill-rule="nonzero"/><path d="M804.425 342.146h53.378v6.255h-53.378z"/><path d="M823.295 326.09c-1.15 0-2.085.936-2.085 2.085 0 1.15.935 2.085 2.085 2.085s2.085-.935 2.085-2.085v-2.085h-2.085z" fill-rule="nonzero"/><path d="M857.48 317.541h-52.732a27.041 27.041 0 0 0-.323 4.17v17.307h13.657v-1.062a5.182 5.182 0 0 1-2.085.436 5.219 5.219 0 0 1-5.213-5.212v-5.213h5.213c.743 0 1.45.157 2.091.44a5.219 5.219 0 0 1 5.207-5.443l5.213-.001v5.212a5.219 5.219 0 0 1-5.213 5.213 5.182 5.182 0 0 1-2.085-.436v6.066h19.808v-1.062a5.182 5.182 0 0 1-2.085.436 5.219 5.219 0 0 1-5.213-5.212v-5.213h5.213c.744 0 1.45.157 2.091.44a5.219 5.219 0 0 1 5.207-5.443l5.213-.001v5.212a5.219 5.219 0 0 1-5.213 5.213 5.182 5.182 0 0 1-2.085-.436v6.066h13.657v-17.306c0-1.41-.11-2.803-.323-4.17zm-43.06-16.655a27.17 27.17 0 0 0-2.178 1.953 26.54 26.54 0 0 0-6.811 11.575h22.516l-13.527-13.528zm18.258-5.817v16.524l12.546-12.546a26.453 26.453 0 0 0-12.546-3.978z" fill-rule="nonzero"/><path d="M815.997 331.094h-2.085v2.086c0 1.15.935 2.085 2.085 2.085s2.085-.936 2.085-2.085c0-1.15-.935-2.086-2.085-2.086zm1.007-32.047l12.546 12.546V295.07a26.453 26.453 0 0 0-12.546 3.978zm32.982 3.793a27.134 27.134 0 0 0-2.178-1.954l-13.527 13.528h22.516a26.543 26.543 0 0 0-6.81-11.575z" fill-rule="nonzero"/></g><path d="M62.518 59.656s170.667-130.16 363.818 0" fill="none" stroke="#b3b3b3" stroke-width="2" stroke-dasharray="2,2,2,6"/><path d="M424.926 47.776l1.424 11.994m-11.961 2.05l11.922-1.94" fill="none" stroke="#b3b3b3" stroke-width="1.999"/><path d="M62.518 392.617s170.667 130.16 363.818 0" fill="none" stroke="#b3b3b3" stroke-width="2" stroke-dasharray="2,2,2,6"/><path d="M424.926 404.498l1.424-11.994m-11.961-2.049l11.922 1.94" fill="none" stroke="#b3b3b3" stroke-width="1.999"/><g fill="none" stroke="#b3b3b3"><path d="M454.494 59.656s170.667-130.16 363.818 0" stroke-width="2" stroke-dasharray="2,2,2,6"/><path d="M816.902 47.776l1.424 11.994m-11.961 2.05l11.922-1.94" stroke-width="1.999"/></g><g fill="none" stroke="#b3b3b3"><path d="M454.494 392.617s170.667 130.16 363.818 0" stroke-width="2" stroke-dasharray="2,2,2,6"/><path d="M816.902 404.498l1.424-11.994m-11.961-2.049l11.922 1.94" stroke-width="1.999"/></g><path d="M342.214 3244.17s-5.565-39.89 28.871-39.89h351.94" fill="none" stroke="#b3b3b3" stroke-width="2.17" stroke-dasharray="2.17,2.17,2.17,6.51" transform="matrix(1.02842 0 0 .80173 -283.406 -2345.803)"/><path d="M76.942 247.919l-8.06 8.996m-9.443-7.622l9.334 7.666" fill="none" stroke="#b3b3b3" stroke-width="1.999"/><path d="M342.214 3244.17s-5.565-39.89 28.871-39.89h351.94" fill="none" stroke="#b3b3b3" stroke-width="2.21" stroke-dasharray="2.21,2.21,2.21,6.63" transform="matrix(-.99864 0 0 -.80173 1182.214 2792.103)"/></svg>