<svg viewBox="0 0 126 126" xmlns="http://www.w3.org/2000/svg" fill-rule="evenodd" clip-rule="evenodd" stroke-linecap="square" stroke-miterlimit="1.5"><circle cx="388.19" cy="3134.94" r="83.488" fill="none" stroke="#89a53c" stroke-width="2.75" transform="translate(-219.777 -2217.2) scale(.7272)"/><g fill="#89a53c" fill-rule="nonzero"><path d="M37.384 79.403a4.977 4.977 0 0 0 3.522 8.499c1.275 0 2.55-.485 3.522-1.458l16.35-16.353-7.044-7.038-16.35 16.35zM78.247 49.1l7.121-3.682 3.728-7.207-3.476-3.476-7.204 3.732-3.688 7.114-8.661 8.671 3.512 3.52 8.668-8.672z"/><path d="M79.807 68l-.67-.067c-1.215 0-2.367.25-3.443.648l-20.44-20.444c.398-1.075.647-2.227.647-3.442l-.066-.67c-.352-5.183-4.621-9.29-9.893-9.29-1.534 0-2.971.376-4.27.996l6.617 6.617c.349.348.588.76.747 1.195.435 1.175.2 2.55-.747 3.499a3.31 3.31 0 0 1-2.347.973c-.392 0-.78-.087-1.152-.226a3.303 3.303 0 0 1-1.195-.75l-6.616-6.613c-.621 1.298-.996 2.735-.996 4.269 0 5.272 4.106 9.54 9.288 9.893l.671.066c1.215 0 2.367-.249 3.443-.644L69.82 74.45c-.391 1.076-.64 2.228-.64 3.443l.07.67c.345 5.186 4.617 9.29 9.889 9.29a9.75 9.75 0 0 0 4.27-.997l-6.617-6.616a3.39 3.39 0 0 1-.754-1.192 3.31 3.31 0 0 1 3.101-4.475c.392 0 .777.083 1.155.226.435.163.85.395 1.192.747l6.616 6.616c.625-1.301.996-2.735.996-4.27-.003-5.271-4.11-9.54-9.292-9.892z"/></g></svg>