<svg viewBox="0 0 38 38" xmlns="http://www.w3.org/2000/svg" fill-rule="evenodd" clip-rule="evenodd" stroke-linejoin="round" stroke-miterlimit="1.414"><path d="M9.937 7.365L6.855 4.282 4.286 6.851 7.37 9.933l2.568-2.568zm-4.794 9.76H.006v3.424h5.137v-3.424zM20.553.173H17.13v4.966h3.424V.173zm12.843 6.678l-2.569-2.569-3.082 3.083 2.397 2.397 3.254-2.911zm-5.651 23.458l3.082 3.083 2.397-2.398-3.082-3.082-2.397 2.397zm4.794-13.184v3.424h5.137v-3.424H32.54zM18.841 8.563c-5.65 0-10.274 4.623-10.274 10.274 0 5.65 4.623 10.274 10.274 10.274 5.65 0 10.274-4.623 10.274-10.274 0-5.65-4.623-10.274-10.274-10.274zm-1.712 28.938h3.424v-4.966H17.13v4.966zM4.286 30.823l2.569 2.569 3.082-3.083-2.397-2.397-3.254 2.911z" fill="#89a53c" fill-rule="nonzero"/></svg>