<svg viewBox="0 0 38 38" xmlns="http://www.w3.org/2000/svg" fill-rule="evenodd" clip-rule="evenodd" stroke-linejoin="round" stroke-miterlimit="1.414"><g fill="#89a53c" fill-rule="nonzero"><path d="M23.031 27.224c-.43-.627-1.48-.627-1.91 0-.762 1.1-2.53 3.82-2.53 5.307a3.49 3.49 0 0 0 3.485 3.486 3.49 3.49 0 0 0 3.486-3.486c0-1.487-1.771-4.208-2.53-5.307zm11.939 4.882l-1.278-.737 1.278-.736a1.16 1.16 0 0 0 .422-1.587 1.158 1.158 0 0 0-1.587-.425l-1.273.736v-1.473a1.162 1.162 0 0 0-2.323 0v1.473l-1.276-.736a1.159 1.159 0 0 0-1.587.425 1.158 1.158 0 0 0 .425 1.587l1.278.736-1.278.737a1.162 1.162 0 1 0 1.162 2.012l1.276-.736v1.473a1.162 1.162 0 0 0 2.323 0v-1.473l1.276.736a1.162 1.162 0 0 0 1.162-2.012zm-22.188-5.384H1.165a1.162 1.162 0 0 0 0 2.324h11.617c.641 0 1.162.523 1.162 1.162 0 .639-.52 1.161-1.162 1.161a1.162 1.162 0 0 0 0 2.324 3.49 3.49 0 0 0 3.485-3.485 3.49 3.49 0 0 0-3.485-3.486zm4.648-9.294a1.162 1.162 0 0 0 0 2.324c.64 0 1.161.523 1.161 1.162 0 .639-.52 1.161-1.162 1.161H1.165a1.162 1.162 0 0 0 0 2.324h16.264a3.49 3.49 0 0 0 3.486-3.485 3.49 3.49 0 0 0-3.486-3.486z"/><path d="M30.209 10.458c-.075 0-.15 0-.228.002a11.582 11.582 0 0 0-11.39-9.296c-4.65 0-8.822 2.767-10.651 6.973-4.394.104-7.937 3.71-7.937 8.13 0 1.266.316 2.449.834 3.517.11-.009 13.304-.032 13.304-.032a3.49 3.49 0 0 1 3.288-4.647 5.817 5.817 0 0 1 5.809 5.809 5.741 5.741 0 0 1-1.192 3.485h8.163a6.98 6.98 0 0 0 6.97-6.97 6.98 6.98 0 0 0-6.97-6.971z"/></g></svg>