<svg viewBox="0 0 158 140" xmlns="http://www.w3.org/2000/svg" fill-rule="evenodd" clip-rule="evenodd" stroke-linecap="square" stroke-miterlimit="1.414"><path d="M97.524 53.496c12.884 5.423 22.001 16.434 23.54 31.148 2.253 21.61-13.308 40.966-36.742 43.42-19.379 2.026-35.032-7.534-41.334-23.676l17.648-16.966c-.093 1.41-.065 2.059.088 3.526 1.158 11.082 10.171 19.93 21.956 18.699 12.205-1.268 18.526-11.439 17.331-22.804-1.065-10.191-8.763-18.493-19.166-18.805l16.679-14.542z" fill="#34495d"/><path d="M70.427 77.758c1.031-.958 2.946-3.102 4.205-4.096 2.664-2.636 4.357-3.786 7.103-6.358 3.43-3.22 6.415-4.985 10.201-8.296v-2.915L121.28 8.104H97.345L81.346 36.235 65.465 8.104H41.082l29.345 48.318v21.336z" fill="#34495d" fill-rule="nonzero"/><path d="M6.298 140L83.23 65.047 157.855 0s-47.674 47.236-72.317 70c-25.26 23.333-79.24 70-79.24 70z" fill-opacity=".231" fill-rule="nonzero"/><path d="M133.97 52.271l-.137.137c-.985.985-2.198 1.469-3.639 1.451-1.442-.019-2.655-.52-3.64-1.505-.985-.986-1.469-2.19-1.469-3.622.01-1.441.539-2.682 1.588-3.731s2.344-1.55 3.876-1.496l.785.785a5.043 5.043 0 0 0-2.335.082 4.345 4.345 0 0 0-1.961 1.122c-.849.857-1.277 1.916-1.277 3.184 0 1.258.437 2.335 1.313 3.21.876.876 1.943 1.314 3.211 1.314 1.268 0 2.326-.429 3.183-1.286a4.387 4.387 0 0 0 1.113-1.952c.21-.767.237-1.551.073-2.354l.803.803c.073 1.514-.42 2.8-1.487 3.858zm6.13-7.114l.438.428c-.73.73-1.606 1.113-2.609 1.14-1.004.019-1.879-.346-2.645-1.103l-9.104-9.113.493-.492 9.103 9.103c.63.629 1.359.94 2.189.94a2.968 2.968 0 0 0 2.135-.903zm-6.65-10.025c-.301.301-.584.31-.866.036-.274-.283-.265-.565.027-.866.301-.301.593-.31.866-.028.283.274.265.566-.027.858zm1.943 1.459l6.933 6.924-.493.501-6.933-6.932.493-.493zm12.551 1.706l-.136.146c-.995.985-2.208 1.469-3.649 1.45-1.441-.027-2.645-.529-3.63-1.505-.986-.985-1.478-2.198-1.469-3.63 0-1.432.529-2.682 1.587-3.731 1.049-1.049 2.335-1.551 3.868-1.496l.793.785a4.952 4.952 0 0 0-2.344.091 4.387 4.387 0 0 0-1.952 1.113c-.857.857-1.277 1.915-1.277 3.183 0 1.268.438 2.335 1.304 3.211.876.876 1.952 1.313 3.211 1.313 1.268 0 2.326-.428 3.184-1.286a4.273 4.273 0 0 0 1.122-1.952c.209-.766.237-1.55.064-2.353l.802.803c.073 1.514-.419 2.8-1.478 3.858zm-7.762-15.726l.492-.492 7.006 7.005.337-5.154.639-.638-.401 5.965 8.145.183-.656.666-7.179-.146 3.658 3.667-.493.492-11.548-11.548z" fill="#34495d" fill-rule="nonzero"/><path d="M.26 125.974l.24-.226c.839-.789 1.776-1.149 2.81-1.08 1.033.068 1.913.489 2.638 1.261.726.772 1.091 1.674 1.095 2.705.004 1.031-.416 1.943-1.26 2.737l-.24.225-5.283-5.622zm.511-.057l-.06.056 4.853 5.165.06-.056c.73-.686 1.091-1.5 1.084-2.444-.007-.944-.343-1.77-1.007-2.477-.664-.707-1.47-1.096-2.416-1.166-.946-.071-1.784.236-2.514.922zm6.077-1.885l3.163 3.366-.24.225-3.163-3.366.24-.225zm-.895-.712c-.145.136-.281.137-.407.002-.127-.135-.118-.27.027-.407.145-.136.281-.136.407-.002.127.135.118.271-.027.407zm5.318-3.458l.24-.226 2.874 3.059c.545.58.815 1.187.809 1.823-.005.635-.267 1.197-.787 1.685a2.604 2.604 0 0 1-1.015.587 2.211 2.211 0 0 1-1.109.082l-.324-.345c.355.118.747.127 1.174.026a2.31 2.31 0 0 0 1.077-.56c.439-.413.66-.9.66-1.46.001-.56-.241-1.098-.725-1.613l-.472-.502c.124.402.118.821-.017 1.258a2.46 2.46 0 0 1-.667 1.093c-.49.46-1.073.681-1.749.662a2.327 2.327 0 0 1-1.698-.755 2.33 2.33 0 0 1-.648-1.741c.024-.676.28-1.244.77-1.704.325-.306.705-.51 1.14-.612a2.06 2.06 0 0 1 1.256.082l-.789-.839zm-1.489 4.589c.399.425.897.646 1.493.665a2.053 2.053 0 0 0 1.528-.567c.422-.397.639-.89.65-1.479a2.085 2.085 0 0 0-.582-1.521 2.084 2.084 0 0 0-1.482-.676 2.001 2.001 0 0 0-1.516.557 2.051 2.051 0 0 0-.662 1.489 2.06 2.06 0 0 0 .571 1.532zm3.273-6.251l3.163 3.366-.24.225-3.163-3.366.24-.225zm-.895-.712c-.145.136-.28.137-.407.002-.127-.135-.118-.271.027-.407.145-.136.281-.137.408-.002.126.135.117.271-.028.407zm6.407 1.56l.197.21a1.738 1.738 0 0 1-1.242.496c-.473-.002-.883-.188-1.23-.558l-3.297-3.509.24-.225 1.282 1.364 1.034-.972.198.21-1.035.972 1.817 1.934c.287.305.625.462 1.015.472.391.01.731-.121 1.021-.394zm1.25-7.216l3.17 3.373-.24.226-.789-.84c.128.416.129.838.005 1.266a2.395 2.395 0 0 1-.668 1.093 2.362 2.362 0 0 1-1.749.662 2.323 2.323 0 0 1-1.697-.755 2.324 2.324 0 0 1-.648-1.741c.023-.676.28-1.244.77-1.704.32-.301.706-.504 1.158-.608.452-.105.867-.072 1.245.1l-.796-.847.239-.225zm-1.721 4.807c.394.42.89.639 1.486.658a2.055 2.055 0 0 0 1.527-.567c.423-.397.639-.89.651-1.479a2.077 2.077 0 0 0-.579-1.517 2.086 2.086 0 0 0-1.486-.673 2.01 2.01 0 0 0-1.52.553c-.419.395-.636.893-.65 1.494-.014.601.176 1.112.571 1.531zm7.239-3.908l.197.21a1.738 1.738 0 0 1-1.242.496c-.473-.002-.883-.188-1.23-.558l-4.156-4.423.24-.226 4.155 4.423c.287.305.625.462 1.016.472.39.01.73-.121 1.02-.394zm3.795-8.309a1.467 1.467 0 0 1-.111-.982c.076-.344.267-.66.571-.946a1.541 1.541 0 0 1 1.112-.424c.437.004.831.193 1.184.568l2.099 2.234-.24.225-2.099-2.234c-.273-.289-.594-.441-.965-.455a1.27 1.27 0 0 0-.957.356 1.367 1.367 0 0 0-.43.969c-.02.394.095.724.343.989l2.114 2.249-.24.225-2.113-2.249a1.345 1.345 0 0 0-.944-.433 1.268 1.268 0 0 0-.968.352c-.27.254-.411.574-.423.962-.012.388.107.714.356.979l2.113 2.249-.24.225-3.17-3.373.24-.225.444.472a1.72 1.72 0 0 1 .079-.809c.095-.296.248-.543.46-.743a1.38 1.38 0 0 1 .819-.353 1.76 1.76 0 0 1 .966.172zm6.25-7.213l3.17 3.373-.24.226-.789-.84c.128.416.129.839.004 1.266a2.38 2.38 0 0 1-.667 1.093 2.362 2.362 0 0 1-1.749.662 2.323 2.323 0 0 1-1.697-.755 2.323 2.323 0 0 1-.648-1.741c.023-.676.28-1.244.77-1.704a2.454 2.454 0 0 1 1.157-.608c.452-.105.867-.072 1.245.1l-.796-.847.24-.225zm-1.721 4.807c.394.42.889.639 1.486.658a2.051 2.051 0 0 0 1.527-.567 2 2 0 0 0 .65-1.479 2.076 2.076 0 0 0-.578-1.517 2.08 2.08 0 0 0-1.486-.672 2.003 2.003 0 0 0-1.52.553c-.419.394-.636.892-.65 1.493-.014.601.176 1.112.571 1.531zm5.322-7.329c-.427-.014-.772.104-1.037.353a1.325 1.325 0 0 0-.419.958c-.015.391.102.718.351.983l2.113 2.249-.24.225-3.169-3.373.24-.226.472.503a1.45 1.45 0 0 1 .025-.815c.087-.288.247-.543.482-.763.235-.221.535-.352.9-.394l.282.3zm-1.592-3.572l.24-.226 3.198 3.404.236-2.423.307-.289-.276 2.8 3.836.207-.323.303-3.378-.171 1.669 1.777-.24.225-5.269-5.607zm9.844 1.478l-.067.063c-.475.446-1.057.656-1.745.63-.688-.026-1.255-.277-1.701-.751-.446-.475-.657-1.051-.634-1.727.024-.676.293-1.256.807-1.739.515-.484 1.15-.695 1.905-.632l-.17 4.535c.569-.045 1.003-.209 1.303-.49.3-.282.504-.603.612-.964.108-.36.132-.728.071-1.104l.359.383c.012.723-.235 1.322-.74 1.796zm-3.206-3.255c-.397.374-.605.859-.624 1.455-.018.596.16 1.094.536 1.494a2.11 2.11 0 0 0 1.383.676l.146-4.216a2.153 2.153 0 0 0-1.441.591zm6.497-.318l.198.21a1.743 1.743 0 0 1-1.242.497c-.473-.003-.883-.189-1.231-.559l-3.296-3.508.24-.226 1.282 1.365 1.034-.973.198.21-1.035.972 1.817 1.935c.287.304.625.462 1.015.471.391.01.731-.121 1.02-.394zm-1.77-4.363l3.162 3.366-.24.226-3.162-3.366.24-.226zm-.895-.712c-.145.136-.281.137-.408.002-.126-.135-.117-.27.028-.407.145-.136.28-.136.407-.001.127.135.118.27-.027.406zm5.594 2.634l-.24.226-3.169-3.374.239-.225.641.682c-.224-.749-.028-1.413.586-1.99.42-.395.909-.581 1.466-.559a1.99 1.99 0 0 1 1.42.656l1.846 1.964-.24.225-1.845-1.964a1.732 1.732 0 0 0-1.209-.558 1.606 1.606 0 0 0-1.24.446c-.345.324-.529.736-.552 1.238-.023.501.128.924.452 1.269l1.845 1.964zm3.952-10.065l.24-.225 2.874 3.058c.545.58.814 1.188.809 1.823-.005.635-.268 1.197-.787 1.686a2.62 2.62 0 0 1-1.016.587 2.207 2.207 0 0 1-1.108.081l-.324-.344c.355.117.747.126 1.174.025a2.3 2.3 0 0 0 1.076-.559c.44-.414.66-.9.661-1.461 0-.56-.241-1.098-.725-1.612l-.472-.503a2.1 2.1 0 0 1-.017 1.259 2.48 2.48 0 0 1-.667 1.093c-.49.46-1.073.681-1.749.662a2.33 2.33 0 0 1-1.698-.755 2.332 2.332 0 0 1-.648-1.741c.024-.677.28-1.245.77-1.705a2.47 2.47 0 0 1 1.14-.612 2.06 2.06 0 0 1 1.256.083l-.789-.84zm-1.489 4.589c.399.425.897.647 1.493.665a2.051 2.051 0 0 0 1.528-.567c.422-.397.639-.89.65-1.479a2.085 2.085 0 0 0-.582-1.521c-.4-.424-.893-.65-1.482-.675a2.004 2.004 0 0 0-1.517.556 2.056 2.056 0 0 0-.661 1.49 2.059 2.059 0 0 0 .571 1.531z" fill="#34495d" fill-rule="nonzero" stroke="#34495d" stroke-width=".3"/></svg>