<svg viewBox="0 0 210 210" xmlns="http://www.w3.org/2000/svg" fill-rule="evenodd" clip-rule="evenodd" stroke-linecap="square" stroke-miterlimit="1.414"><path fill="#34495d" d="M0 0h210v210H0z"/><path d="M115.576 93.838c9.965 4.194 17.017 12.71 18.207 24.091 1.743 16.714-10.293 31.685-28.418 33.582-14.989 1.567-27.095-5.827-31.97-18.312l13.651-13.122c-.073 1.091-.051 1.593.067 2.727.896 8.572 7.867 15.416 16.982 14.463 9.44-.981 14.329-8.847 13.405-17.638-.824-7.882-6.778-14.303-14.824-14.544l12.9-11.247z" fill="#fff"/><path d="M94.618 112.602c.797-.74 2.279-2.398 3.253-3.167 2.06-2.039 3.37-2.928 5.493-4.918 2.653-2.49 4.962-3.856 7.89-6.417v-2.254l22.696-37.117h-18.512l-12.375 21.758L90.78 58.729H71.922L94.618 96.1v16.502z" fill="#fff" fill-rule="nonzero"/><path d="M45.018 160.743l59.503-57.972 57.718-50.31s-36.873 36.534-55.933 54.141c-19.537 18.047-61.288 54.141-61.288 54.141z" fill-opacity=".231" fill-rule="nonzero"/><path d="M143.765 92.89l-.106.106c-.762.762-1.7 1.136-2.815 1.122-1.114-.014-2.053-.402-2.815-1.164-.762-.762-1.136-1.693-1.136-2.801.008-1.115.417-2.074 1.228-2.886.811-.811 1.813-1.199 2.998-1.157l.607.607a3.892 3.892 0 0 0-1.806.064c-.593.162-1.1.451-1.517.867-.656.664-.987 1.482-.987 2.463 0 .973.338 1.806 1.015 2.483.678.677 1.503 1.016 2.484 1.016.981 0 1.799-.332 2.462-.995.409-.416.699-.917.861-1.51a3.868 3.868 0 0 0 .056-1.82l.621.621c.057 1.171-.324 2.166-1.15 2.984zm4.741-5.503l.339.332c-.565.564-1.242.861-2.018.882-.776.014-1.453-.268-2.046-.854l-7.041-7.048.381-.381 7.041 7.041c.487.487 1.051.727 1.693.727a2.287 2.287 0 0 0 1.651-.699zm-5.143-7.753c-.233.233-.452.24-.67.028-.212-.219-.205-.437.021-.67.233-.233.459-.24.67-.021.219.211.205.437-.021.663zm1.503 1.129l5.362 5.354-.381.389-5.362-5.362.381-.381zm9.708 1.319l-.106.113c-.769.762-1.708 1.136-2.822 1.122-1.115-.022-2.046-.41-2.808-1.165-.762-.761-1.143-1.7-1.136-2.807 0-1.108.409-2.075 1.228-2.886.811-.811 1.806-1.199 2.991-1.157l.614.607a3.843 3.843 0 0 0-1.813.07 3.398 3.398 0 0 0-1.51.861c-.663.663-.988 1.482-.988 2.462 0 .981.339 1.806 1.009 2.484.677.677 1.51 1.016 2.483 1.016.981 0 1.799-.332 2.463-.995.416-.409.705-.917.867-1.51a3.768 3.768 0 0 0 .05-1.82l.621.621c.056 1.171-.325 2.166-1.143 2.984zm-6.004-12.163l.381-.381 5.418 5.418.261-3.986.494-.494-.311 4.614 6.301.141-.508.515-5.553-.112 2.829 2.836-.381.381-8.931-8.932z" fill="#fff" fill-rule="nonzero"/><path d="M40.348 149.895l.185-.174c.65-.611 1.374-.889 2.174-.836.799.053 1.479.378 2.041.975.561.597.843 1.295.846 2.092.004.798-.321 1.503-.975 2.117l-.185.175-4.086-4.349zm.395-.044l-.046.044 3.753 3.994.047-.043c.564-.53.844-1.161.838-1.891-.005-.73-.265-1.368-.779-1.915a2.765 2.765 0 0 0-1.868-.902c-.732-.055-1.38.183-1.945.713zm4.7-1.458l2.447 2.604-.186.174-2.446-2.603.185-.175zm-.692-.55c-.112.105-.217.105-.315.001s-.091-.209.021-.315c.112-.105.217-.105.315-.001s.091.209-.021.315zm4.114-2.675l.185-.175 2.223 2.366c.421.448.63.918.626 1.41-.004.491-.207.926-.609 1.303a2.012 2.012 0 0 1-.785.454 1.715 1.715 0 0 1-.858.064l-.251-.267c.275.091.578.098.909.02.331-.078.608-.222.832-.433.34-.32.511-.696.511-1.129 0-.434-.186-.85-.561-1.248l-.365-.388c.096.31.091.635-.013.973a1.9 1.9 0 0 1-.516.845c-.379.356-.83.527-1.353.512a1.8 1.8 0 0 1-1.313-.584 1.8 1.8 0 0 1-.501-1.346 1.83 1.83 0 0 1 .596-1.319 1.91 1.91 0 0 1 .881-.473c.337-.08.66-.058.972.064l-.61-.649zm-1.152 3.549c.309.329.693.5 1.155.515.461.014.855-.132 1.181-.439.327-.307.494-.688.503-1.144a1.614 1.614 0 0 0-.45-1.176 1.612 1.612 0 0 0-1.146-.523 1.546 1.546 0 0 0-1.173.431 1.589 1.589 0 0 0-.512 1.152 1.59 1.59 0 0 0 .442 1.184zm2.531-4.835l2.446 2.604-.185.174-2.446-2.603.185-.175zm-.692-.55c-.112.105-.217.105-.315.001s-.091-.209.021-.314c.112-.106.217-.106.315-.002s.091.209-.021.315zm4.955 1.206l.153.163a1.349 1.349 0 0 1-.961.384c-.365-.002-.683-.146-.952-.432l-2.549-2.714.185-.174.992 1.055.8-.752.153.162-.801.752 1.406 1.496c.222.236.483.358.785.365a1.07 1.07 0 0 0 .789-.305zm.968-5.581l2.451 2.609-.185.174-.611-.649c.099.322.1.649.004.98-.097.33-.269.612-.516.845-.379.356-.83.526-1.353.512a1.802 1.802 0 0 1-1.313-.584 1.803 1.803 0 0 1-.501-1.347c.018-.523.216-.962.595-1.318.248-.233.546-.389.896-.47.349-.081.67-.055.963.077l-.616-.655.186-.174zm-1.332 3.718a1.58 1.58 0 0 0 1.149.509 1.59 1.59 0 0 0 1.182-.439c.326-.307.494-.688.503-1.144a1.608 1.608 0 0 0-.448-1.173c-.307-.327-.69-.5-1.149-.52a1.548 1.548 0 0 0-1.175.428 1.57 1.57 0 0 0-.504 1.155c-.01.465.137.86.442 1.184zm5.599-3.022l.152.162a1.345 1.345 0 0 1-.96.384c-.366-.002-.683-.146-.952-.432l-3.214-3.421.185-.175 3.215 3.421c.221.236.483.358.785.365.302.008.565-.094.789-.304zm2.935-6.427a1.133 1.133 0 0 1-.086-.759c.059-.267.207-.511.442-.733.236-.221.523-.33.861-.327.337.003.642.149.915.439l1.623 1.728-.185.174-1.624-1.728a1.05 1.05 0 0 0-.746-.352.984.984 0 0 0-.74.275 1.057 1.057 0 0 0-.333.75.996.996 0 0 0 .266.765l1.634 1.739-.185.175-1.635-1.74a1.04 1.04 0 0 0-.729-.335.981.981 0 0 0-.749.272 1.024 1.024 0 0 0-.327.744c-.01.3.082.553.275.758l1.634 1.739-.186.174-2.451-2.609.185-.174.344.365a1.326 1.326 0 0 1 .061-.626c.073-.228.192-.419.356-.574.164-.154.375-.245.633-.273a1.36 1.36 0 0 1 .747.133zm4.835-5.579l2.451 2.609-.185.174-.611-.649c.099.322.1.649.004.979a1.861 1.861 0 0 1-.516.846c-.379.356-.83.526-1.353.512a1.802 1.802 0 0 1-1.313-.584 1.803 1.803 0 0 1-.501-1.347c.018-.523.216-.962.595-1.318.248-.233.546-.389.896-.47.349-.081.67-.055.963.077l-.616-.655.186-.174zm-1.332 3.718a1.58 1.58 0 0 0 1.149.509 1.59 1.59 0 0 0 1.182-.439c.326-.307.494-.688.503-1.144a1.608 1.608 0 0 0-.448-1.173c-.307-.327-.69-.5-1.149-.52a1.548 1.548 0 0 0-1.175.428 1.57 1.57 0 0 0-.504 1.155c-.01.465.137.86.442 1.184zm4.116-5.669c-.329-.01-.597.081-.802.273-.205.193-.313.44-.324.742a1.01 1.01 0 0 0 .272.76l1.634 1.739-.185.174-2.452-2.609.186-.174.365.388a1.12 1.12 0 0 1 .019-.629c.067-.223.192-.42.373-.591.182-.171.414-.272.697-.305l.217.232zm-1.231-2.762l.186-.175 2.473 2.633.183-1.875.237-.223-.214 2.166 2.967.16-.249.234-2.613-.132 1.291 1.374-.185.175-4.076-4.337zm7.614 1.143l-.052.049c-.367.345-.817.507-1.349.487-.532-.02-.971-.214-1.316-.581a1.782 1.782 0 0 1-.49-1.336c.018-.522.226-.971.624-1.345s.889-.537 1.473-.489l-.132 3.508c.44-.035.776-.161 1.008-.379.232-.218.39-.467.474-.745.084-.279.102-.564.055-.854l.277.296c.009.559-.182 1.022-.572 1.389zm-2.48-2.517c-.307.288-.468.663-.482 1.124-.015.461.123.847.414 1.156.291.309.647.483 1.07.523l.113-3.261a1.665 1.665 0 0 0-1.115.458zm5.026-.246l.152.162a1.345 1.345 0 0 1-.96.384c-.366-.002-.683-.146-.952-.432l-2.55-2.714.186-.174.991 1.055.801-.752.152.163-.8.751 1.406 1.496c.221.236.483.358.785.365.302.008.565-.094.789-.304zm-1.37-3.375l2.446 2.603-.185.175-2.446-2.604.185-.174zm-.692-.551c-.112.106-.217.106-.315.002-.098-.105-.091-.209.021-.315.112-.105.217-.106.315-.001.098.104.091.209-.021.314zm4.327 2.037l-.186.175-2.451-2.609.185-.175.496.528c-.173-.58-.022-1.093.453-1.539a1.513 1.513 0 0 1 1.134-.432c.431.017.797.186 1.098.507l1.428 1.519-.186.174-1.427-1.519a1.335 1.335 0 0 0-.935-.431 1.24 1.24 0 0 0-.959.344c-.267.251-.409.57-.427.958-.018.387.099.715.35.981l1.427 1.519zm3.057-7.784l.185-.175 2.223 2.366c.421.448.63.918.626 1.41-.004.491-.207.926-.609 1.304a2.02 2.02 0 0 1-.786.454 1.722 1.722 0 0 1-.857.063l-.251-.267c.275.091.578.098.909.02.33-.078.608-.222.832-.433.34-.319.511-.696.511-1.129 0-.434-.187-.849-.561-1.248l-.365-.388c.096.311.091.635-.013.973a1.9 1.9 0 0 1-.516.845c-.379.356-.83.527-1.353.513a1.804 1.804 0 0 1-1.313-.584 1.803 1.803 0 0 1-.501-1.347c.018-.523.217-.962.595-1.318a1.92 1.92 0 0 1 .882-.474c.336-.079.66-.058.972.064l-.61-.649zm-1.152 3.549c.308.329.693.5 1.154.515.462.014.855-.132 1.182-.439.327-.307.494-.688.503-1.144a1.614 1.614 0 0 0-.45-1.176 1.612 1.612 0 0 0-1.146-.523 1.546 1.546 0 0 0-1.173.431 1.589 1.589 0 0 0-.512 1.152 1.59 1.59 0 0 0 .442 1.184z" fill="#fff" fill-rule="nonzero" stroke="#fff" stroke-width=".3"/></svg>